<mxfile host="app.diagrams.net" modified="2023-11-09T08:53:56.000Z" agent="Mozilla/5.0 (Windows NT 10.0; Win64; x64; rv:109.0) Gecko/20100101 Firefox/119.0" version="22.0.8" etag="rp6ESGiGBIvalZYkksjk" type="github">
  <diagram name="Page-1" id="5azwX624hnaeNzr8F9Dk">
    <mxGraphModel>
      <root>
        <mxCell id="0" />
        <mxCell id="1" parent="0" />
      </root>
    </mxGraphModel>
  </diagram>
</mxfile>
